<?xml version="1.0" encoding="UTF-8" standalone="no"?>
<!-- Created with Inkscape (http://www.inkscape.org/) -->

<svg
   width="43.422623mm"
   height="98.190979mm"
   viewBox="0 0 43.422623 98.190979"
   version="1.1"
   id="svg3503"
   xml:space="preserve"
   inkscape:version="1.2.1 (9c6d41e410, 2022-07-14)"
   sodipodi:docname="new K claire.svg"
   xmlns:inkscape="http://www.inkscape.org/namespaces/inkscape"
   xmlns:sodipodi="http://sodipodi.sourceforge.net/DTD/sodipodi-0.dtd"
   xmlns="http://www.w3.org/2000/svg"
   xmlns:svg="http://www.w3.org/2000/svg"><sodipodi:namedview
     id="namedview3505"
     pagecolor="#ffffff"
     bordercolor="#000000"
     borderopacity="0.25"
     inkscape:showpageshadow="2"
     inkscape:pageopacity="0.0"
     inkscape:pagecheckerboard="0"
     inkscape:deskcolor="#d1d1d1"
     inkscape:document-units="mm"
     showgrid="false"
     inkscape:zoom="0.71624579"
     inkscape:cx="89.354801"
     inkscape:cy="292.49736"
     inkscape:window-width="1920"
     inkscape:window-height="991"
     inkscape:window-x="-9"
     inkscape:window-y="-9"
     inkscape:window-maximized="1"
     inkscape:current-layer="layer1-3" /><defs
     id="defs3500"><clipPath
       clipPathUnits="userSpaceOnUse"
       id="clipPath3577"><path
         id="path3579"
         style="fill:#ff0000;fill-opacity:1;fill-rule:nonzero;stroke:none;stroke-width:0.264583"
         d="M 56.795844,62.244575 V 124.67384 H 122.69983 V 71.793863 c -0.0302,-0.01239 -0.0614,-0.02237 -0.0904,-0.03721 -0.15915,-0.08145 -0.26146,-0.222312 -0.31626,-0.38964 -0.0391,-0.146342 -0.0605,-0.295335 -0.0698,-0.445451 -0.0759,-0.114147 -0.064,-0.216271 -0.005,-0.263033 5e-5,-0.0019 -4e-5,-0.0038 0,-0.0057 0.004,-0.162357 0.0879,-0.243904 0.1695,-0.243913 0.0816,-9e-6 0.16114,0.08152 0.15864,0.243913 -7.9e-4,0.05321 -7.9e-4,0.106503 5.3e-4,0.15968 0.0287,0.03715 0.0591,0.07289 0.0858,0.11162 0.0157,-0.04147 0.0396,-0.07205 0.0667,-0.09147 v -8.588108 z m 59.696096,6.005835 h 5.3e-4 5.3e-4 c 0.0969,-0.0019 0.20708,0.01398 0.33021,0.05168 0.25732,0.07877 0.50688,0.172321 0.74156,0.304374 0.28507,0.195589 0.50397,0.47118 0.72502,0.733805 0.14588,0.172826 0.33528,0.298664 0.50436,0.447001 0.21554,0.206353 0.40012,0.441973 0.58084,0.678512 0.17889,0.216396 0.28214,0.482559 0.44648,0.70745 h 5.3e-4 c 0.002,5.03e-4 0.003,0.0011 0.005,0.0021 0.005,0.0032 0.003,0.0019 0.008,0.0052 0.009,0.0053 0.0177,0.01075 0.0259,0.01705 0.006,0.0048 0.0116,0.0095 0.0186,0.01395 0.005,0.0035 0.0105,0.0065 0.0155,0.01033 0.006,0.0047 0.012,0.01 0.017,0.0155 0.007,0.0068 0.0132,0.01374 0.0212,0.01964 0.006,0.0042 0.0121,0.0079 0.0181,0.01137 0.007,0.0037 0.0136,0.0074 0.0196,0.01189 0.01,0.0075 0.0184,0.01534 0.0284,0.02274 0.009,0.0075 0.0174,0.01494 0.0264,0.02274 0.005,0.0045 0.007,0.0091 0.007,0.01292 0.005,0.0023 0.009,0.0047 0.0134,0.0072 0.007,0.0044 0.0126,0.0102 0.0196,0.0155 0.006,0.0041 0.0118,0.0079 0.0186,0.01085 h 5.2e-4 c 0.006,0.003 0.009,0.0071 0.0103,0.01085 0.042,0.01969 0.0845,0.03902 0.12557,0.05891 0.18493,0.07768 0.35479,0.183572 0.52659,0.28577 0.14714,0.08039 0.27923,0.188688 0.43408,0.254248 0.18002,0.07567 0.33732,0.192808 0.48937,0.313159 0.72038,0.570204 0.12489,1.309928 -0.58187,0.722956 -0.0893,-0.07416 -0.18324,-0.145677 -0.29094,-0.190688 -0.18417,-0.086 -0.35286,-0.19657 -0.52607,-0.302308 -0.14864,-0.08888 -0.29544,-0.182052 -0.4563,-0.248047 -0.24243,-0.11761 -0.48757,-0.234048 -0.66301,-0.447517 -0.19701,-0.251745 -0.33362,-0.53763 -0.51418,-0.800468 -0.14388,-0.18837 -0.28982,-0.376377 -0.45682,-0.545186 -0.20332,-0.179667 -0.4318,-0.331413 -0.60151,-0.546737 -0.1523,-0.181913 -0.30527,-0.368757 -0.48059,-0.528133 -0.16341,-0.101543 -0.35013,-0.151174 -0.5302,-0.214974 -0.74377,-0.263505 -0.66961,-0.930807 -0.0775,-0.943612 z" /></clipPath><clipPath
       clipPathUnits="userSpaceOnUse"
       id="clipPath3587"><path
         id="path3589"
         style="fill:#ff0000;fill-opacity:1;fill-rule:nonzero;stroke:none;stroke-width:0.264583"
         d="m 107.94579,62.122644 v 14.813848 h 12.99074 v -4.033278 c -0.0443,-0.0293 -0.0902,-0.05551 -0.1393,-0.07604 -0.18418,-0.086 -0.35298,-0.196746 -0.52619,-0.302481 -0.14864,-0.08888 -0.29523,-0.182101 -0.45609,-0.248091 -0.24243,-0.117612 -0.4878,-0.233873 -0.66324,-0.44734 -0.19702,-0.251745 -0.33351,-0.53749 -0.51406,-0.800329 -0.14389,-0.188361 -0.28999,-0.37676 -0.45699,-0.545577 -0.20332,-0.179666 -0.43151,-0.331363 -0.60123,-0.546689 -0.15229,-0.181905 -0.30549,-0.368441 -0.48081,-0.527816 -0.16341,-0.101545 -0.35016,-0.151545 -0.53023,-0.215346 -0.74422,-0.26366 -0.66952,-0.931505 -0.0764,-0.943521 0.0971,-0.002 0.20763,0.0138 0.33117,0.05162 0.25732,0.07877 0.50675,0.172653 0.74143,0.304703 0.2851,0.195589 0.5042,0.471102 0.72525,0.733727 0.14588,0.17282 0.33509,0.298446 0.50417,0.446784 0.21554,0.206353 0.4003,0.442243 0.58102,0.678781 0.19881,0.240487 0.30003,0.544673 0.50057,0.782569 0.0976,0.08908 0.22652,0.136679 0.34421,0.193699 0.0904,0.03797 0.17724,0.0827 0.26242,0.130428 -0.018,-0.08035 -6.9e-4,-0.146526 0.0359,-0.182599 4e-5,-0.002 -4e-5,-0.0041 0,-0.0061 0.004,-0.174374 0.0764,-0.261957 0.14739,-0.261966 0.0709,-1e-5 0.14012,0.08755 0.13795,0.261966 -6.9e-4,0.05459 -4.6e-4,0.109169 4.6e-4,0.163728 0.026,0.04134 0.0505,0.08441 0.0746,0.127653 0.0137,-0.04454 0.0344,-0.07739 0.058,-0.09824 v -9.45409 z m 10.42495,9.642793 h 4.6e-4 c 0.003,-2.33e-4 0.007,6.53e-4 0.01,0.0033 0.004,0.0034 0.002,0.002 0.007,0.0055 0.008,0.0056 0.0155,0.01155 0.0225,0.01831 0.005,0.0052 0.0101,0.01016 0.0162,0.01498 0.004,0.0038 0.009,0.007 0.0135,0.0111 0.005,0.0051 0.0105,0.01074 0.0148,0.01665 0.006,0.0073 0.0115,0.01475 0.0184,0.02109 0.005,0.0045 0.0105,0.0085 0.0157,0.01221 0.006,0.004 0.0118,0.0079 0.0171,0.01276 0.008,0.008 0.016,0.01647 0.0247,0.02442 0.008,0.008 0.0147,0.01604 0.0225,0.02442 0.004,0.0048 0.006,0.0097 0.006,0.01388 0.004,0.0024 0.008,0.005 0.0117,0.0078 0.006,0.0048 0.011,0.01096 0.0171,0.01665 0.005,0.0045 0.0102,0.0085 0.0162,0.01165 h 4.6e-4 c 0.0156,0.0093 0.009,0.02905 -0.007,0.02054 -0.007,-0.0038 -0.0141,-0.0088 -0.0202,-0.01443 -0.005,-0.005 -0.0101,-0.01125 -0.0162,-0.01554 -0.006,-0.0044 -0.0132,-0.0079 -0.0193,-0.01221 -0.007,-0.0048 -0.0137,-0.01175 -0.0207,-0.01776 -0.003,-0.0022 -0.005,-0.004 -0.007,-0.0061 -0.003,0.0012 -0.008,2.23e-4 -0.0126,-0.0044 -0.007,-0.0071 -0.0151,-0.01366 -0.022,-0.02053 -0.009,-0.0089 -0.0173,-0.01932 -0.0252,-0.02942 -0.004,-0.0063 -0.01,-0.01115 -0.0148,-0.0161 -0.005,-0.0041 -0.01,-0.009 -0.0148,-0.01388 -0.005,-0.005 -0.01,-0.01017 -0.0144,-0.01554 -0.004,-0.0051 -0.009,-0.0098 -0.013,-0.01498 -9.2e-4,-8.53e-4 -0.002,-0.0019 -0.003,-0.0028 -0.005,-0.0056 -0.006,-0.01127 -0.005,-0.01554 -0.004,-0.0028 -0.007,-0.0057 -0.0108,-0.0083 -0.005,-0.0038 -0.002,-0.0022 -0.007,-0.0055 -0.0111,-0.0083 -0.009,-0.02072 -0.001,-0.0222 z" /></clipPath><clipPath
       clipPathUnits="userSpaceOnUse"
       id="clipPath3577-1"><path
         id="path3579-3"
         style="fill:#ff0000;fill-opacity:1;fill-rule:nonzero;stroke:none;stroke-width:0.264583"
         d="M 56.795844,62.244575 V 124.67384 H 122.69983 V 71.793863 c -0.0302,-0.01239 -0.0614,-0.02237 -0.0904,-0.03721 -0.15915,-0.08145 -0.26146,-0.222312 -0.31626,-0.38964 -0.0391,-0.146342 -0.0605,-0.295335 -0.0698,-0.445451 -0.0759,-0.114147 -0.064,-0.216271 -0.005,-0.263033 5e-5,-0.0019 -4e-5,-0.0038 0,-0.0057 0.004,-0.162357 0.0879,-0.243904 0.1695,-0.243913 0.0816,-9e-6 0.16114,0.08152 0.15864,0.243913 -7.9e-4,0.05321 -7.9e-4,0.106503 5.3e-4,0.15968 0.0287,0.03715 0.0591,0.07289 0.0858,0.11162 0.0157,-0.04147 0.0396,-0.07205 0.0667,-0.09147 v -8.588108 z m 59.696096,6.005835 h 5.3e-4 5.3e-4 c 0.0969,-0.0019 0.20708,0.01398 0.33021,0.05168 0.25732,0.07877 0.50688,0.172321 0.74156,0.304374 0.28507,0.195589 0.50397,0.47118 0.72502,0.733805 0.14588,0.172826 0.33528,0.298664 0.50436,0.447001 0.21554,0.206353 0.40012,0.441973 0.58084,0.678512 0.17889,0.216396 0.28214,0.482559 0.44648,0.70745 h 5.3e-4 c 0.002,5.03e-4 0.003,0.0011 0.005,0.0021 0.005,0.0032 0.003,0.0019 0.008,0.0052 0.009,0.0053 0.0177,0.01075 0.0259,0.01705 0.006,0.0048 0.0116,0.0095 0.0186,0.01395 0.005,0.0035 0.0105,0.0065 0.0155,0.01033 0.006,0.0047 0.012,0.01 0.017,0.0155 0.007,0.0068 0.0132,0.01374 0.0212,0.01964 0.006,0.0042 0.0121,0.0079 0.0181,0.01137 0.007,0.0037 0.0136,0.0074 0.0196,0.01189 0.01,0.0075 0.0184,0.01534 0.0284,0.02274 0.009,0.0075 0.0174,0.01494 0.0264,0.02274 0.005,0.0045 0.007,0.0091 0.007,0.01292 0.005,0.0023 0.009,0.0047 0.0134,0.0072 0.007,0.0044 0.0126,0.0102 0.0196,0.0155 0.006,0.0041 0.0118,0.0079 0.0186,0.01085 h 5.2e-4 c 0.006,0.003 0.009,0.0071 0.0103,0.01085 0.042,0.01969 0.0845,0.03902 0.12557,0.05891 0.18493,0.07768 0.35479,0.183572 0.52659,0.28577 0.14714,0.08039 0.27923,0.188688 0.43408,0.254248 0.18002,0.07567 0.33732,0.192808 0.48937,0.313159 0.72038,0.570204 0.12489,1.309928 -0.58187,0.722956 -0.0893,-0.07416 -0.18324,-0.145677 -0.29094,-0.190688 -0.18417,-0.086 -0.35286,-0.19657 -0.52607,-0.302308 -0.14864,-0.08888 -0.29544,-0.182052 -0.4563,-0.248047 -0.24243,-0.11761 -0.48757,-0.234048 -0.66301,-0.447517 -0.19701,-0.251745 -0.33362,-0.53763 -0.51418,-0.800468 -0.14388,-0.18837 -0.28982,-0.376377 -0.45682,-0.545186 -0.20332,-0.179667 -0.4318,-0.331413 -0.60151,-0.546737 -0.1523,-0.181913 -0.30527,-0.368757 -0.48059,-0.528133 -0.16341,-0.101543 -0.35013,-0.151174 -0.5302,-0.214974 -0.74377,-0.263505 -0.66961,-0.930807 -0.0775,-0.943612 z" /></clipPath><clipPath
       clipPathUnits="userSpaceOnUse"
       id="clipPath3587-2"><path
         id="path3589-5"
         style="fill:#ff0000;fill-opacity:1;fill-rule:nonzero;stroke:none;stroke-width:0.264583"
         d="m 107.94579,62.122644 v 14.813848 h 12.99074 v -4.033278 c -0.0443,-0.0293 -0.0902,-0.05551 -0.1393,-0.07604 -0.18418,-0.086 -0.35298,-0.196746 -0.52619,-0.302481 -0.14864,-0.08888 -0.29523,-0.182101 -0.45609,-0.248091 -0.24243,-0.117612 -0.4878,-0.233873 -0.66324,-0.44734 -0.19702,-0.251745 -0.33351,-0.53749 -0.51406,-0.800329 -0.14389,-0.188361 -0.28999,-0.37676 -0.45699,-0.545577 -0.20332,-0.179666 -0.43151,-0.331363 -0.60123,-0.546689 -0.15229,-0.181905 -0.30549,-0.368441 -0.48081,-0.527816 -0.16341,-0.101545 -0.35016,-0.151545 -0.53023,-0.215346 -0.74422,-0.26366 -0.66952,-0.931505 -0.0764,-0.943521 0.0971,-0.002 0.20763,0.0138 0.33117,0.05162 0.25732,0.07877 0.50675,0.172653 0.74143,0.304703 0.2851,0.195589 0.5042,0.471102 0.72525,0.733727 0.14588,0.17282 0.33509,0.298446 0.50417,0.446784 0.21554,0.206353 0.4003,0.442243 0.58102,0.678781 0.19881,0.240487 0.30003,0.544673 0.50057,0.782569 0.0976,0.08908 0.22652,0.136679 0.34421,0.193699 0.0904,0.03797 0.17724,0.0827 0.26242,0.130428 -0.018,-0.08035 -6.9e-4,-0.146526 0.0359,-0.182599 4e-5,-0.002 -4e-5,-0.0041 0,-0.0061 0.004,-0.174374 0.0764,-0.261957 0.14739,-0.261966 0.0709,-1e-5 0.14012,0.08755 0.13795,0.261966 -6.9e-4,0.05459 -4.6e-4,0.109169 4.6e-4,0.163728 0.026,0.04134 0.0505,0.08441 0.0746,0.127653 0.0137,-0.04454 0.0344,-0.07739 0.058,-0.09824 v -9.45409 z m 10.42495,9.642793 h 4.6e-4 c 0.003,-2.33e-4 0.007,6.53e-4 0.01,0.0033 0.004,0.0034 0.002,0.002 0.007,0.0055 0.008,0.0056 0.0155,0.01155 0.0225,0.01831 0.005,0.0052 0.0101,0.01016 0.0162,0.01498 0.004,0.0038 0.009,0.007 0.0135,0.0111 0.005,0.0051 0.0105,0.01074 0.0148,0.01665 0.006,0.0073 0.0115,0.01475 0.0184,0.02109 0.005,0.0045 0.0105,0.0085 0.0157,0.01221 0.006,0.004 0.0118,0.0079 0.0171,0.01276 0.008,0.008 0.016,0.01647 0.0247,0.02442 0.008,0.008 0.0147,0.01604 0.0225,0.02442 0.004,0.0048 0.006,0.0097 0.006,0.01388 0.004,0.0024 0.008,0.005 0.0117,0.0078 0.006,0.0048 0.011,0.01096 0.0171,0.01665 0.005,0.0045 0.0102,0.0085 0.0162,0.01165 h 4.6e-4 c 0.0156,0.0093 0.009,0.02905 -0.007,0.02054 -0.007,-0.0038 -0.0141,-0.0088 -0.0202,-0.01443 -0.005,-0.005 -0.0101,-0.01125 -0.0162,-0.01554 -0.006,-0.0044 -0.0132,-0.0079 -0.0193,-0.01221 -0.007,-0.0048 -0.0137,-0.01175 -0.0207,-0.01776 -0.003,-0.0022 -0.005,-0.004 -0.007,-0.0061 -0.003,0.0012 -0.008,2.23e-4 -0.0126,-0.0044 -0.007,-0.0071 -0.0151,-0.01366 -0.022,-0.02053 -0.009,-0.0089 -0.0173,-0.01932 -0.0252,-0.02942 -0.004,-0.0063 -0.01,-0.01115 -0.0148,-0.0161 -0.005,-0.0041 -0.01,-0.009 -0.0148,-0.01388 -0.005,-0.005 -0.01,-0.01017 -0.0144,-0.01554 -0.004,-0.0051 -0.009,-0.0098 -0.013,-0.01498 -9.2e-4,-8.53e-4 -0.002,-0.0019 -0.003,-0.0028 -0.005,-0.0056 -0.006,-0.01127 -0.005,-0.01554 -0.004,-0.0028 -0.007,-0.0057 -0.0108,-0.0083 -0.005,-0.0038 -0.002,-0.0022 -0.007,-0.0055 -0.0111,-0.0083 -0.009,-0.02072 -0.001,-0.0222 z" /></clipPath></defs><g
     inkscape:label="Calque 1"
     inkscape:groupmode="layer"
     id="layer1"
     transform="translate(-76.276444,-71.445288)"><g
       inkscape:label="Calque 1"
       id="layer1-3"
       transform="matrix(0.99276383,0,0,1.0936288,-2.2228016,-27.492992)"><path
         id="rect12082-3-0"
         style="fill:none;stroke-width:0.374015"
         d="m 82.072921,90.467881 h 3.227782 c 1.662831,0 3.001503,1.238044 3.001503,2.775881 v 78.727158 c 0,1.53786 -1.338672,2.7759 -3.001503,2.7759 h -3.227782 c -1.662832,0 -3.001501,-1.23804 -3.001501,-2.7759 V 93.243762 c 0,-1.537837 1.338669,-2.775881 3.001501,-2.775881 z" /><path
         style="fill:#e5e5e5;fill-opacity:1;stroke:#ececec;stroke-width:1.32052;stroke-linecap:round;stroke-linejoin:bevel;stroke-dasharray:none;stroke-opacity:0.996855"
         d="m 89.262949,131.44842 25.556111,34.18396"
         id="path12084-7-5" /><path
         style="fill:#e5e5e5;fill-opacity:0.831373;stroke:#e5e5e5;stroke-width:0.468959;stroke-linecap:round;stroke-opacity:0.831373"
         d="m 95.608442,132.32565 26.780848,33.70297"
         id="path12086-9-4" /><path
         id="rect12088-2-87"
         style="fill:#fca311;fill-opacity:0.831373;stroke-width:0.896611"
         d="m 110.19003,101.94615 6.54045,5.18941 -16.03354,17.42782 -6.540457,-5.18942 z" /><path
         id="rect12090-2-5"
         style="fill:#fca311;fill-opacity:0.831373;stroke-width:0.853228"
         d="m 115.04726,98.788599 4.46525,3.542851 c 0.72579,0.57586 0.81119,1.58178 0.19152,2.25539 l -0.55932,0.60797 c -0.61971,0.67359 -1.70294,0.75226 -2.42875,0.17649 l -4.46523,-3.54287 c -0.72582,-0.57589 -0.81122,-1.58178 -0.1915,-2.255388 l 0.55931,-0.607943 c 0.61972,-0.67362 1.70293,-0.752293 2.42875,-0.17649 z" /><path
         id="path12092-0-9"
         style="fill:#fca311;fill-opacity:0.831373;stroke-width:0.98959"
         inkscape:transform-center-x="-1.5051894"
         inkscape:transform-center-y="-1.5605459"
         d="m 99.987594,125.31573 -8.832554,3.40218 2.261492,-8.63051 z" /><g
         aria-label="Keep Us"
         transform="matrix(2.1306109,0,0,2.3393707,-107.21029,-68.726457)"
         id="text12096-8-34"
         style="font-size:4.56725px;font-family:'Lucida Console';-inkscape-font-specification:'Lucida Console';fill:#e5e5e5;fill-opacity:0.831373;stroke-width:0.425846"><path
           d="m 89.474721,105.54897 v -2.86122 h 0.439331 v 1.40274 l 1.197565,-1.40274 h 0.44379 l -1.155193,1.34921 1.375973,1.51201 h -0.526304 l -1.335831,-1.45848 v 1.45848 z"
           id="path6297" /><path
           d="m 94.296203,105.45308 q -0.457171,0.15165 -0.838519,0.15165 -0.624428,0 -0.961174,-0.32114 -0.334515,-0.32113 -0.334515,-0.9188 0,-0.56422 0.321135,-0.92772 0.323364,-0.36351 0.820677,-0.36351 0.501773,0 0.738164,0.30106 0.238621,0.30107 0.238621,0.93665 v 0.14049 h -1.650276 q 0.04906,0.82291 0.887581,0.82291 0.354586,0 0.778306,-0.16949 z m -1.652506,-1.33137 h 1.168574 v -0.0624 q 0,-0.65565 -0.546375,-0.65565 -0.263153,0 -0.42818,0.18956 -0.162798,0.18956 -0.194019,0.52854 z"
           id="path6299" /><path
           d="m 97.048149,105.45308 q -0.457171,0.15165 -0.838518,0.15165 -0.624429,0 -0.961174,-0.32114 -0.334516,-0.32113 -0.334516,-0.9188 0,-0.56422 0.321135,-0.92772 0.323365,-0.36351 0.820678,-0.36351 0.501773,0 0.738164,0.30106 0.238621,0.30107 0.238621,0.93665 v 0.14049 h -1.650276 q 0.04906,0.82291 0.887581,0.82291 0.354586,0 0.778305,-0.16949 z m -1.652506,-1.33137 h 1.168574 v -0.0624 q 0,-0.65565 -0.546375,-0.65565 -0.263152,0 -0.42818,0.18956 -0.162797,0.18956 -0.194019,0.52854 z"
           id="path6301" /><path
           d="m 97.750632,106.42986 v -3.30278 h 0.43933 v 0.45494 q 0.318904,-0.50846 0.791686,-0.50846 0.412569,0 0.64896,0.3189 0.238621,0.31668 0.238621,0.86528 0,0.60213 -0.280993,0.97456 -0.280993,0.37243 -0.735934,0.37243 -0.390268,0 -0.66234,-0.33006 v 1.15519 z m 0.43933,-1.48524 q 0.305524,0.33005 0.602127,0.33005 0.289914,0 0.448251,-0.25423 0.160567,-0.25646 0.160567,-0.71586 0,-0.85636 -0.510693,-0.85636 -0.372427,0 -0.700252,0.46386 z"
           id="path6303" /><path
           d="m 103.19654,102.68775 h 0.43933 v 1.73725 q 0,0.45494 0.14273,0.66011 0.14496,0.20294 0.46609,0.20294 0.33898,0 0.48839,-0.20294 0.14942,-0.20517 0.14942,-0.67126 v -1.7261 h 0.38358 v 1.66143 q 0,0.53745 -0.12712,0.77161 -0.26984,0.49732 -0.88981,0.49732 -0.53745,0 -0.79615,-0.29438 -0.25646,-0.29437 -0.25646,-0.90542 z"
           id="path6305" /><path
           d="m 106.02431,105.45085 v -0.39696 q 0.5107,0.22078 0.88312,0.22078 0.26761,0 0.44156,-0.10704 0.17618,-0.10928 0.17618,-0.27431 0,-0.21186 -0.41703,-0.34566 l -0.47055,-0.15388 q -0.55084,-0.17841 -0.55084,-0.62889 0,-0.33005 0.24755,-0.51069 0.24977,-0.18064 0.70471,-0.18064 0.3412,0 0.79168,0.10481 v 0.35682 q -0.43487,-0.13158 -0.79391,-0.13158 -0.24085,0 -0.38581,0.087 -0.14273,0.087 -0.14273,0.23416 0,0.18064 0.32783,0.29437 l 0.55529,0.19402 q 0.3033,0.10705 0.43487,0.25646 0.13381,0.14719 0.13381,0.38358 0,0.34344 -0.28322,0.54861 -0.28323,0.20294 -0.76047,0.20294 -0.41703,0 -0.89204,-0.15388 z"
           id="path6307" /></g><path
         id="rect12098-9-7"
         style="fill:#e5e5e5;fill-opacity:1;stroke-width:0.978838"
         d="m 86.334526,96.312947 c 2.099644,0 3.789969,1.563276 3.789969,3.505089 v 63.091504 c 0,1.94182 -1.690325,3.50508 -3.789969,3.50508 -2.099641,0 -3.789968,-1.56326 -3.789968,-3.50508 V 99.818036 c 0,-1.941813 1.690327,-3.505089 3.789968,-3.505089 z" /></g></g></svg>
