<?xml version="1.0" encoding="UTF-8" standalone="no"?>
<!-- Created with Inkscape (http://www.inkscape.org/) -->

<svg
   width="86.754211mm"
   height="83.730156mm"
   viewBox="0 0 86.754211 83.730156"
   version="1.1"
   id="svg394"
   xml:space="preserve"
   inkscape:version="1.2.1 (9c6d41e410, 2022-07-14)"
   sodipodi:docname="new logo final.svg"
   xmlns:inkscape="http://www.inkscape.org/namespaces/inkscape"
   xmlns:sodipodi="http://sodipodi.sourceforge.net/DTD/sodipodi-0.dtd"
   xmlns="http://www.w3.org/2000/svg"
   xmlns:svg="http://www.w3.org/2000/svg"><sodipodi:namedview
     id="namedview396"
     pagecolor="#ffffff"
     bordercolor="#000000"
     borderopacity="0.25"
     inkscape:showpageshadow="2"
     inkscape:pageopacity="0.0"
     inkscape:pagecheckerboard="0"
     inkscape:deskcolor="#d1d1d1"
     inkscape:document-units="mm"
     showgrid="false"
     inkscape:zoom="1.4788159"
     inkscape:cx="36.515701"
     inkscape:cy="161.27768"
     inkscape:window-width="1920"
     inkscape:window-height="991"
     inkscape:window-x="-9"
     inkscape:window-y="-9"
     inkscape:window-maximized="1"
     inkscape:current-layer="layer1" /><defs
     id="defs391"><clipPath
       clipPathUnits="userSpaceOnUse"
       id="clipPath3577"><path
         id="path3579"
         style="fill:#ff0000;fill-opacity:1;fill-rule:nonzero;stroke:none;stroke-width:0.264583"
         d="M 56.795844,62.244575 V 124.67384 H 122.69983 V 71.793863 c -0.0302,-0.01239 -0.0614,-0.02237 -0.0904,-0.03721 -0.15915,-0.08145 -0.26146,-0.222312 -0.31626,-0.38964 -0.0391,-0.146342 -0.0605,-0.295335 -0.0698,-0.445451 -0.0759,-0.114147 -0.064,-0.216271 -0.005,-0.263033 5e-5,-0.0019 -4e-5,-0.0038 0,-0.0057 0.004,-0.162357 0.0879,-0.243904 0.1695,-0.243913 0.0816,-9e-6 0.16114,0.08152 0.15864,0.243913 -7.9e-4,0.05321 -7.9e-4,0.106503 5.3e-4,0.15968 0.0287,0.03715 0.0591,0.07289 0.0858,0.11162 0.0157,-0.04147 0.0396,-0.07205 0.0667,-0.09147 v -8.588108 z m 59.696096,6.005835 h 5.3e-4 5.3e-4 c 0.0969,-0.0019 0.20708,0.01398 0.33021,0.05168 0.25732,0.07877 0.50688,0.172321 0.74156,0.304374 0.28507,0.195589 0.50397,0.47118 0.72502,0.733805 0.14588,0.172826 0.33528,0.298664 0.50436,0.447001 0.21554,0.206353 0.40012,0.441973 0.58084,0.678512 0.17889,0.216396 0.28214,0.482559 0.44648,0.70745 h 5.3e-4 c 0.002,5.03e-4 0.003,0.0011 0.005,0.0021 0.005,0.0032 0.003,0.0019 0.008,0.0052 0.009,0.0053 0.0177,0.01075 0.0259,0.01705 0.006,0.0048 0.0116,0.0095 0.0186,0.01395 0.005,0.0035 0.0105,0.0065 0.0155,0.01033 0.006,0.0047 0.012,0.01 0.017,0.0155 0.007,0.0068 0.0132,0.01374 0.0212,0.01964 0.006,0.0042 0.0121,0.0079 0.0181,0.01137 0.007,0.0037 0.0136,0.0074 0.0196,0.01189 0.01,0.0075 0.0184,0.01534 0.0284,0.02274 0.009,0.0075 0.0174,0.01494 0.0264,0.02274 0.005,0.0045 0.007,0.0091 0.007,0.01292 0.005,0.0023 0.009,0.0047 0.0134,0.0072 0.007,0.0044 0.0126,0.0102 0.0196,0.0155 0.006,0.0041 0.0118,0.0079 0.0186,0.01085 h 5.2e-4 c 0.006,0.003 0.009,0.0071 0.0103,0.01085 0.042,0.01969 0.0845,0.03902 0.12557,0.05891 0.18493,0.07768 0.35479,0.183572 0.52659,0.28577 0.14714,0.08039 0.27923,0.188688 0.43408,0.254248 0.18002,0.07567 0.33732,0.192808 0.48937,0.313159 0.72038,0.570204 0.12489,1.309928 -0.58187,0.722956 -0.0893,-0.07416 -0.18324,-0.145677 -0.29094,-0.190688 -0.18417,-0.086 -0.35286,-0.19657 -0.52607,-0.302308 -0.14864,-0.08888 -0.29544,-0.182052 -0.4563,-0.248047 -0.24243,-0.11761 -0.48757,-0.234048 -0.66301,-0.447517 -0.19701,-0.251745 -0.33362,-0.53763 -0.51418,-0.800468 -0.14388,-0.18837 -0.28982,-0.376377 -0.45682,-0.545186 -0.20332,-0.179667 -0.4318,-0.331413 -0.60151,-0.546737 -0.1523,-0.181913 -0.30527,-0.368757 -0.48059,-0.528133 -0.16341,-0.101543 -0.35013,-0.151174 -0.5302,-0.214974 -0.74377,-0.263505 -0.66961,-0.930807 -0.0775,-0.943612 z" /></clipPath><clipPath
       clipPathUnits="userSpaceOnUse"
       id="clipPath3587"><path
         id="path3589"
         style="fill:#ff0000;fill-opacity:1;fill-rule:nonzero;stroke:none;stroke-width:0.264583"
         d="m 107.94579,62.122644 v 14.813848 h 12.99074 v -4.033278 c -0.0443,-0.0293 -0.0902,-0.05551 -0.1393,-0.07604 -0.18418,-0.086 -0.35298,-0.196746 -0.52619,-0.302481 -0.14864,-0.08888 -0.29523,-0.182101 -0.45609,-0.248091 -0.24243,-0.117612 -0.4878,-0.233873 -0.66324,-0.44734 -0.19702,-0.251745 -0.33351,-0.53749 -0.51406,-0.800329 -0.14389,-0.188361 -0.28999,-0.37676 -0.45699,-0.545577 -0.20332,-0.179666 -0.43151,-0.331363 -0.60123,-0.546689 -0.15229,-0.181905 -0.30549,-0.368441 -0.48081,-0.527816 -0.16341,-0.101545 -0.35016,-0.151545 -0.53023,-0.215346 -0.74422,-0.26366 -0.66952,-0.931505 -0.0764,-0.943521 0.0971,-0.002 0.20763,0.0138 0.33117,0.05162 0.25732,0.07877 0.50675,0.172653 0.74143,0.304703 0.2851,0.195589 0.5042,0.471102 0.72525,0.733727 0.14588,0.17282 0.33509,0.298446 0.50417,0.446784 0.21554,0.206353 0.4003,0.442243 0.58102,0.678781 0.19881,0.240487 0.30003,0.544673 0.50057,0.782569 0.0976,0.08908 0.22652,0.136679 0.34421,0.193699 0.0904,0.03797 0.17724,0.0827 0.26242,0.130428 -0.018,-0.08035 -6.9e-4,-0.146526 0.0359,-0.182599 4e-5,-0.002 -4e-5,-0.0041 0,-0.0061 0.004,-0.174374 0.0764,-0.261957 0.14739,-0.261966 0.0709,-1e-5 0.14012,0.08755 0.13795,0.261966 -6.9e-4,0.05459 -4.6e-4,0.109169 4.6e-4,0.163728 0.026,0.04134 0.0505,0.08441 0.0746,0.127653 0.0137,-0.04454 0.0344,-0.07739 0.058,-0.09824 v -9.45409 z m 10.42495,9.642793 h 4.6e-4 c 0.003,-2.33e-4 0.007,6.53e-4 0.01,0.0033 0.004,0.0034 0.002,0.002 0.007,0.0055 0.008,0.0056 0.0155,0.01155 0.0225,0.01831 0.005,0.0052 0.0101,0.01016 0.0162,0.01498 0.004,0.0038 0.009,0.007 0.0135,0.0111 0.005,0.0051 0.0105,0.01074 0.0148,0.01665 0.006,0.0073 0.0115,0.01475 0.0184,0.02109 0.005,0.0045 0.0105,0.0085 0.0157,0.01221 0.006,0.004 0.0118,0.0079 0.0171,0.01276 0.008,0.008 0.016,0.01647 0.0247,0.02442 0.008,0.008 0.0147,0.01604 0.0225,0.02442 0.004,0.0048 0.006,0.0097 0.006,0.01388 0.004,0.0024 0.008,0.005 0.0117,0.0078 0.006,0.0048 0.011,0.01096 0.0171,0.01665 0.005,0.0045 0.0102,0.0085 0.0162,0.01165 h 4.6e-4 c 0.0156,0.0093 0.009,0.02905 -0.007,0.02054 -0.007,-0.0038 -0.0141,-0.0088 -0.0202,-0.01443 -0.005,-0.005 -0.0101,-0.01125 -0.0162,-0.01554 -0.006,-0.0044 -0.0132,-0.0079 -0.0193,-0.01221 -0.007,-0.0048 -0.0137,-0.01175 -0.0207,-0.01776 -0.003,-0.0022 -0.005,-0.004 -0.007,-0.0061 -0.003,0.0012 -0.008,2.23e-4 -0.0126,-0.0044 -0.007,-0.0071 -0.0151,-0.01366 -0.022,-0.02053 -0.009,-0.0089 -0.0173,-0.01932 -0.0252,-0.02942 -0.004,-0.0063 -0.01,-0.01115 -0.0148,-0.0161 -0.005,-0.0041 -0.01,-0.009 -0.0148,-0.01388 -0.005,-0.005 -0.01,-0.01017 -0.0144,-0.01554 -0.004,-0.0051 -0.009,-0.0098 -0.013,-0.01498 -9.2e-4,-8.53e-4 -0.002,-0.0019 -0.003,-0.0028 -0.005,-0.0056 -0.006,-0.01127 -0.005,-0.01554 -0.004,-0.0028 -0.007,-0.0057 -0.0108,-0.0083 -0.005,-0.0038 -0.002,-0.0022 -0.007,-0.0055 -0.0111,-0.0083 -0.009,-0.02072 -0.001,-0.0222 z" /></clipPath><clipPath
       clipPathUnits="userSpaceOnUse"
       id="clipPath3577-1"><path
         id="path3579-3"
         style="fill:#ff0000;fill-opacity:1;fill-rule:nonzero;stroke:none;stroke-width:0.264583"
         d="M 56.795844,62.244575 V 124.67384 H 122.69983 V 71.793863 c -0.0302,-0.01239 -0.0614,-0.02237 -0.0904,-0.03721 -0.15915,-0.08145 -0.26146,-0.222312 -0.31626,-0.38964 -0.0391,-0.146342 -0.0605,-0.295335 -0.0698,-0.445451 -0.0759,-0.114147 -0.064,-0.216271 -0.005,-0.263033 5e-5,-0.0019 -4e-5,-0.0038 0,-0.0057 0.004,-0.162357 0.0879,-0.243904 0.1695,-0.243913 0.0816,-9e-6 0.16114,0.08152 0.15864,0.243913 -7.9e-4,0.05321 -7.9e-4,0.106503 5.3e-4,0.15968 0.0287,0.03715 0.0591,0.07289 0.0858,0.11162 0.0157,-0.04147 0.0396,-0.07205 0.0667,-0.09147 v -8.588108 z m 59.696096,6.005835 h 5.3e-4 5.3e-4 c 0.0969,-0.0019 0.20708,0.01398 0.33021,0.05168 0.25732,0.07877 0.50688,0.172321 0.74156,0.304374 0.28507,0.195589 0.50397,0.47118 0.72502,0.733805 0.14588,0.172826 0.33528,0.298664 0.50436,0.447001 0.21554,0.206353 0.40012,0.441973 0.58084,0.678512 0.17889,0.216396 0.28214,0.482559 0.44648,0.70745 h 5.3e-4 c 0.002,5.03e-4 0.003,0.0011 0.005,0.0021 0.005,0.0032 0.003,0.0019 0.008,0.0052 0.009,0.0053 0.0177,0.01075 0.0259,0.01705 0.006,0.0048 0.0116,0.0095 0.0186,0.01395 0.005,0.0035 0.0105,0.0065 0.0155,0.01033 0.006,0.0047 0.012,0.01 0.017,0.0155 0.007,0.0068 0.0132,0.01374 0.0212,0.01964 0.006,0.0042 0.0121,0.0079 0.0181,0.01137 0.007,0.0037 0.0136,0.0074 0.0196,0.01189 0.01,0.0075 0.0184,0.01534 0.0284,0.02274 0.009,0.0075 0.0174,0.01494 0.0264,0.02274 0.005,0.0045 0.007,0.0091 0.007,0.01292 0.005,0.0023 0.009,0.0047 0.0134,0.0072 0.007,0.0044 0.0126,0.0102 0.0196,0.0155 0.006,0.0041 0.0118,0.0079 0.0186,0.01085 h 5.2e-4 c 0.006,0.003 0.009,0.0071 0.0103,0.01085 0.042,0.01969 0.0845,0.03902 0.12557,0.05891 0.18493,0.07768 0.35479,0.183572 0.52659,0.28577 0.14714,0.08039 0.27923,0.188688 0.43408,0.254248 0.18002,0.07567 0.33732,0.192808 0.48937,0.313159 0.72038,0.570204 0.12489,1.309928 -0.58187,0.722956 -0.0893,-0.07416 -0.18324,-0.145677 -0.29094,-0.190688 -0.18417,-0.086 -0.35286,-0.19657 -0.52607,-0.302308 -0.14864,-0.08888 -0.29544,-0.182052 -0.4563,-0.248047 -0.24243,-0.11761 -0.48757,-0.234048 -0.66301,-0.447517 -0.19701,-0.251745 -0.33362,-0.53763 -0.51418,-0.800468 -0.14388,-0.18837 -0.28982,-0.376377 -0.45682,-0.545186 -0.20332,-0.179667 -0.4318,-0.331413 -0.60151,-0.546737 -0.1523,-0.181913 -0.30527,-0.368757 -0.48059,-0.528133 -0.16341,-0.101543 -0.35013,-0.151174 -0.5302,-0.214974 -0.74377,-0.263505 -0.66961,-0.930807 -0.0775,-0.943612 z" /></clipPath><clipPath
       clipPathUnits="userSpaceOnUse"
       id="clipPath3587-2"><path
         id="path3589-5"
         style="fill:#ff0000;fill-opacity:1;fill-rule:nonzero;stroke:none;stroke-width:0.264583"
         d="m 107.94579,62.122644 v 14.813848 h 12.99074 v -4.033278 c -0.0443,-0.0293 -0.0902,-0.05551 -0.1393,-0.07604 -0.18418,-0.086 -0.35298,-0.196746 -0.52619,-0.302481 -0.14864,-0.08888 -0.29523,-0.182101 -0.45609,-0.248091 -0.24243,-0.117612 -0.4878,-0.233873 -0.66324,-0.44734 -0.19702,-0.251745 -0.33351,-0.53749 -0.51406,-0.800329 -0.14389,-0.188361 -0.28999,-0.37676 -0.45699,-0.545577 -0.20332,-0.179666 -0.43151,-0.331363 -0.60123,-0.546689 -0.15229,-0.181905 -0.30549,-0.368441 -0.48081,-0.527816 -0.16341,-0.101545 -0.35016,-0.151545 -0.53023,-0.215346 -0.74422,-0.26366 -0.66952,-0.931505 -0.0764,-0.943521 0.0971,-0.002 0.20763,0.0138 0.33117,0.05162 0.25732,0.07877 0.50675,0.172653 0.74143,0.304703 0.2851,0.195589 0.5042,0.471102 0.72525,0.733727 0.14588,0.17282 0.33509,0.298446 0.50417,0.446784 0.21554,0.206353 0.4003,0.442243 0.58102,0.678781 0.19881,0.240487 0.30003,0.544673 0.50057,0.782569 0.0976,0.08908 0.22652,0.136679 0.34421,0.193699 0.0904,0.03797 0.17724,0.0827 0.26242,0.130428 -0.018,-0.08035 -6.9e-4,-0.146526 0.0359,-0.182599 4e-5,-0.002 -4e-5,-0.0041 0,-0.0061 0.004,-0.174374 0.0764,-0.261957 0.14739,-0.261966 0.0709,-1e-5 0.14012,0.08755 0.13795,0.261966 -6.9e-4,0.05459 -4.6e-4,0.109169 4.6e-4,0.163728 0.026,0.04134 0.0505,0.08441 0.0746,0.127653 0.0137,-0.04454 0.0344,-0.07739 0.058,-0.09824 v -9.45409 z m 10.42495,9.642793 h 4.6e-4 c 0.003,-2.33e-4 0.007,6.53e-4 0.01,0.0033 0.004,0.0034 0.002,0.002 0.007,0.0055 0.008,0.0056 0.0155,0.01155 0.0225,0.01831 0.005,0.0052 0.0101,0.01016 0.0162,0.01498 0.004,0.0038 0.009,0.007 0.0135,0.0111 0.005,0.0051 0.0105,0.01074 0.0148,0.01665 0.006,0.0073 0.0115,0.01475 0.0184,0.02109 0.005,0.0045 0.0105,0.0085 0.0157,0.01221 0.006,0.004 0.0118,0.0079 0.0171,0.01276 0.008,0.008 0.016,0.01647 0.0247,0.02442 0.008,0.008 0.0147,0.01604 0.0225,0.02442 0.004,0.0048 0.006,0.0097 0.006,0.01388 0.004,0.0024 0.008,0.005 0.0117,0.0078 0.006,0.0048 0.011,0.01096 0.0171,0.01665 0.005,0.0045 0.0102,0.0085 0.0162,0.01165 h 4.6e-4 c 0.0156,0.0093 0.009,0.02905 -0.007,0.02054 -0.007,-0.0038 -0.0141,-0.0088 -0.0202,-0.01443 -0.005,-0.005 -0.0101,-0.01125 -0.0162,-0.01554 -0.006,-0.0044 -0.0132,-0.0079 -0.0193,-0.01221 -0.007,-0.0048 -0.0137,-0.01175 -0.0207,-0.01776 -0.003,-0.0022 -0.005,-0.004 -0.007,-0.0061 -0.003,0.0012 -0.008,2.23e-4 -0.0126,-0.0044 -0.007,-0.0071 -0.0151,-0.01366 -0.022,-0.02053 -0.009,-0.0089 -0.0173,-0.01932 -0.0252,-0.02942 -0.004,-0.0063 -0.01,-0.01115 -0.0148,-0.0161 -0.005,-0.0041 -0.01,-0.009 -0.0148,-0.01388 -0.005,-0.005 -0.01,-0.01017 -0.0144,-0.01554 -0.004,-0.0051 -0.009,-0.0098 -0.013,-0.01498 -9.2e-4,-8.53e-4 -0.002,-0.0019 -0.003,-0.0028 -0.005,-0.0056 -0.006,-0.01127 -0.005,-0.01554 -0.004,-0.0028 -0.007,-0.0057 -0.0108,-0.0083 -0.005,-0.0038 -0.002,-0.0022 -0.007,-0.0055 -0.0111,-0.0083 -0.009,-0.02072 -0.001,-0.0222 z" /></clipPath></defs><g
     inkscape:label="Calque 1"
     inkscape:groupmode="layer"
     id="layer1"
     transform="translate(-18.787255,-45.022272)"><g
       inkscape:label="Calque 1"
       id="layer1-4"
       transform="matrix(0.56249788,0,0,0.61964776,4.9263483,5.4741925)"><path
         style="fill:none;stroke:#e5e5e5;stroke-width:1.13744;stroke-dasharray:none;stroke-opacity:1"
         d="m 61.967817,62.244461 c -2.865063,0 -5.171777,2.141879 -5.171777,4.802291 v 52.824678 c 0,2.66044 2.306714,4.8023 5.171777,4.8023 h 55.560433 c 2.86509,0 5.17178,-2.14186 5.17178,-4.8023 V 73.647899 c -0.13381,-0.102663 -0.26708,-0.205961 -0.39739,-0.313159 -0.43919,-0.39709 -0.88494,-0.786563 -1.31879,-1.189591 -0.45645,-0.389316 -0.90536,-0.789357 -1.39526,-1.136882 -0.43077,-0.302138 -0.86761,-0.59571 -1.31103,-0.879016 -0.45053,-0.272193 -0.89367,-0.555121 -1.31,-0.877982 -0.35655,-0.277858 -0.70079,-0.571137 -1.05523,-0.851628 -0.29098,-0.230143 -0.58771,-0.453155 -0.8847,-0.675411 -0.31813,-0.246019 -0.66114,-0.460135 -0.971,-0.717786 -0.34892,-0.267163 -0.70055,-0.530656 -1.05782,-0.786515 -0.41254,-0.34051 -0.81857,-0.687759 -1.22318,-1.037663 -0.56581,-0.519186 -1.10684,-1.065464 -1.68207,-1.574581 -0.50701,-0.446687 -1.02791,-0.873356 -1.57251,-1.273307 -0.0384,-0.02981 -0.0764,-0.05999 -0.11472,-0.08992 z"
         id="rect12080-8-70"
         clip-path="url(#clipPath3577)"
         transform="matrix(2.3215078,0,0,2.1470049,-107.21029,-68.726457)" /><path
         id="rect12082-3-0"
         style="fill:none;stroke-width:0.374015"
         d="m 82.072921,90.467881 h 3.227782 c 1.662831,0 3.001503,1.238044 3.001503,2.775881 v 78.727158 c 0,1.53786 -1.338672,2.7759 -3.001503,2.7759 h -3.227782 c -1.662832,0 -3.001501,-1.23804 -3.001501,-2.7759 V 93.243762 c 0,-1.537837 1.338669,-2.775881 3.001501,-2.775881 z" /><path
         style="fill:#e5e5e5;fill-opacity:1;stroke:#ececec;stroke-width:1.86907;stroke-linecap:round;stroke-linejoin:bevel;stroke-dasharray:none;stroke-opacity:0.996855"
         d="m 85.20544,133.93756 36.17221,48.38409"
         id="path12084-7-5" /><path
         style="fill:#e5e5e5;fill-opacity:0.831373;stroke:#e5e5e5;stroke-width:0.663766;stroke-linecap:round;stroke-opacity:0.831373"
         d="m 94.18687,135.17919 37.90571,47.7033"
         id="path12086-9-4" /><path
         id="rect12088-2-87"
         style="fill:#fca311;fill-opacity:0.831373;stroke-width:1.26907"
         d="m 114.8257,92.179939 9.25738,7.34511 -22.69393,24.667401 -9.25739,-7.34513 z" /><path
         id="rect12090-2-5"
         style="fill:#fca311;fill-opacity:0.831373;stroke-width:1.20766"
         d="m 121.70064,87.710739 6.32013,5.01456 c 1.02729,0.81507 1.14816,2.23885 0.27108,3.19228 l -0.79166,0.86053 c -0.87714,0.9534 -2.41035,1.06475 -3.43766,0.2498 l -6.32011,-5.01459 c -1.02732,-0.81512 -1.1482,-2.23886 -0.27105,-3.19229 l 0.79165,-0.86048 c 0.87716,-0.95344 2.41034,-1.0648 3.43767,-0.2498 z" /><path
         id="path12092-0-9"
         style="fill:#fca311;fill-opacity:0.831373;stroke-width:1.40067"
         inkscape:transform-center-x="-2.1304476"
         inkscape:transform-center-y="-2.2088029"
         d="m 100.38513,125.25733 -12.501618,4.81545 3.200924,-12.21565 z" /><path
         style="fill:#e5e5e5;fill-opacity:1;stroke:none;stroke-width:0.399514;stroke-dasharray:none;stroke-opacity:1"
         d="m 108.39213,62.123073 c 0,0 -1.7412,8.597238 1.65425,13.021633 3.3954,4.424408 10.89048,-0.736129 10.89048,-0.736129 z"
         id="path12100-0-8"
         clip-path="url(#clipPath3587)"
         transform="matrix(2.6697881,0,0,1.999045,-144.00291,-60.363333)" /><path
         id="rect12098-9-7"
         style="fill:#e5e5e5;fill-opacity:1;stroke-width:1.38545"
         d="m 81.060541,84.206683 c 2.971843,0 5.364334,2.212666 5.364334,4.961106 v 89.299941 c 0,2.74846 -2.392491,4.9611 -5.364334,4.9611 -2.971839,0 -5.364334,-2.21264 -5.364334,-4.9611 V 89.167789 c 0,-2.74844 2.392495,-4.961106 5.364334,-4.961106 z" /></g><path
       style="fill:#e5e5e5;stroke:none;stroke-width:0.762641;stroke-linecap:round;stroke-linejoin:round;stroke-dasharray:none"
       d="M 71.896187,127.84213 103.72738,95.199954"
       id="path683" /></g></svg>
